<?xml version="1.0" encoding="utf-8"?>
<!-- Generator: Adobe Illustrator 27.2.0, SVG Export Plug-In . SVG Version: 6.00 Build 0)  -->
<svg version="1.1" id="OBJECTS" xmlns="http://www.w3.org/2000/svg" xmlns:xlink="http://www.w3.org/1999/xlink" x="0px" y="0px"
	 viewBox="0 0 47.8 48.1" style="enable-background:new 0 0 47.8 48.1;" xml:space="preserve">
<style type="text/css">
	.st0{fill:none;stroke:#141613;stroke-miterlimit:10;}
	.st1{fill-rule:evenodd;clip-rule:evenodd;fill:#141613;}
</style>
<g>
	
		<image style="overflow:visible;opacity:6.000000e-02;" width="55" height="55" xlink:href="FC923B9F0EA95DF4.png"  transform="matrix(1 0 0 1 -3.4665 -3.2775)">
	</image>
	<g>
		<g>
			<path id="XMLID_00000173150345971600380550000012784073801889212059_" class="st0" d="M23.9,47.3L23.9,47.3
				C11.1,47.3,0.7,36.9,0.7,24l0,0c0-12.8,10.4-23.2,23.2-23.2l0,0c12.8,0,23.2,10.4,23.2,23.2l0,0C47.1,36.9,36.7,47.3,23.9,47.3z"
				/>
			<g id="XMLID_00000075854288834072740480000017747738857851166092_">
				<path id="XMLID_00000142897145774461377520000008935876964117150635_" class="st1" d="M33.9,28.3c-0.6-0.3-3.2-1.6-3.7-1.8
					c-0.5-0.2-0.9-0.3-1.2,0.3c-0.4,0.5-1.4,1.8-1.7,2.1c-0.3,0.4-0.6,0.4-1.2,0.1c-0.5-0.3-2.3-0.8-4.4-2.7c-1.6-1.4-2.7-3.2-3-3.7
					c-0.3-0.5,0-0.8,0.2-1.1c0.2-0.2,0.5-0.6,0.8-0.9c0.1-0.1,0.1-0.2,0.2-0.3c0.1-0.2,0.2-0.4,0.3-0.6c0.2-0.4,0.1-0.7,0-0.9
					c-0.1-0.3-1.2-2.9-1.7-4c-0.4-1.1-0.9-0.9-1.2-0.9c-0.3,0-0.7-0.1-1-0.1c-0.4,0-1,0.1-1.5,0.7c-0.5,0.5-1.9,1.9-1.9,4.5
					c0,0.6,0.1,1.3,0.3,1.8c0.6,1.9,1.7,3.5,1.9,3.8c0.3,0.4,3.8,6,9.3,8.2c5.6,2.2,5.6,1.4,6.6,1.3c1-0.1,3.2-1.3,3.7-2.6
					c0.5-1.3,0.5-2.3,0.3-2.6C34.8,28.7,34.4,28.6,33.9,28.3z"/>
			</g>
		</g>
	</g>
</g>
</svg>
