<?xml version="1.0" encoding="utf-8"?>
<!-- Generator: Adobe Illustrator 27.2.0, SVG Export Plug-In . SVG Version: 6.00 Build 0)  -->
<svg version="1.1" id="OBJECTS" xmlns="http://www.w3.org/2000/svg" xmlns:xlink="http://www.w3.org/1999/xlink" x="0px" y="0px"
	 viewBox="0 0 138 136.5" style="enable-background:new 0 0 138 136.5;" xml:space="preserve">
<style type="text/css">
	.st0{fill:none;stroke:#000D20;stroke-width:4;stroke-miterlimit:10;}
	.st1{stroke:#000D20;stroke-miterlimit:10;}
</style>
<g>
	
		<image style="overflow:visible;opacity:0.2;" width="300" height="300" xlink:href="65AF870AB4A01881.png"  transform="matrix(0.48 0 0 0.48 -1 -2.5)">
	</image>
	<g>
		<g>
			<g>
				<ellipse transform="matrix(0.148 -0.989 0.989 0.148 -7.969 125.7517)" class="st0" cx="69" cy="67.5" rx="63.8" ry="63.8"/>
			</g>
			<g>
				<path class="st1" d="M82.7,95c-4.9,2.6-9.9,3.6-15.9,3.6c-14.6,0-27.1-10.7-27.1-27.9c0-18.4,12.8-34.3,32.6-34.3
					c15.5,0,26,10.9,26,25.8c0,13.4-7.5,21.3-15.9,21.3c-3.6,0-6.9-2.4-6.6-7.9h-0.4c-3.1,5.3-7.2,7.9-12.6,7.9
					c-5.2,0-9.6-4.2-9.6-11.3c0-11.1,8.8-21.2,21.2-21.2c3.8,0,7.2,0.8,9.6,1.9l-3,16.2c-1.3,6.8-0.3,9.9,2.7,10
					c4.6,0.1,9.6-6,9.6-16.3c0-13-7.8-22.2-21.6-22.2C57,40.5,44.8,52,44.8,70.2c0,14.9,9.7,24.1,23,24.1c5.1,0,9.8-1.1,13.5-3.1
					L82.7,95z M77.8,56.4c-0.9-0.3-2.4-0.6-4.5-0.6c-7.9,0-14.2,7.4-14.2,16.1c0,3.9,2,6.8,5.9,6.8c5.2,0,9.9-6.6,10.9-12.1
					L77.8,56.4z"/>
			</g>
		</g>
	</g>
</g>
</svg>
